<mxfile host="app.diagrams.net" agent="Mozilla/5.0 (Windows NT 10.0; Win64; x64) AppleWebKit/537.36 (KHTML, like Gecko) Chrome/132.0.0.0 Safari/537.36" version="26.0.10">
  <diagram name="Page-1" id="Mood7ppCCCmnFpI8QoeQ">
    <mxGraphModel dx="1114" dy="600" grid="1" gridSize="10" guides="1" tooltips="1" connect="1" arrows="1" fold="1" page="1" pageScale="1" pageWidth="827" pageHeight="1169" math="0" shadow="0">
      <root>
        <mxCell id="0" />
        <mxCell id="1" parent="0" />
        <mxCell id="G1pBKtVzUoB-wNksZCLJ-1" value="" style="rounded=0;whiteSpace=wrap;html=1;" vertex="1" parent="1">
          <mxGeometry x="240" y="10" width="310" height="530" as="geometry" />
        </mxCell>
        <mxCell id="G1pBKtVzUoB-wNksZCLJ-2" value="Text" style="ellipse;whiteSpace=wrap;html=1;" vertex="1" parent="1">
          <mxGeometry x="369" y="60" width="90" height="50" as="geometry" />
        </mxCell>
        <mxCell id="G1pBKtVzUoB-wNksZCLJ-3" value="" style="ellipse;whiteSpace=wrap;html=1;" vertex="1" parent="1">
          <mxGeometry x="370" y="330" width="90" height="50" as="geometry" />
        </mxCell>
        <mxCell id="G1pBKtVzUoB-wNksZCLJ-5" value="" style="ellipse;whiteSpace=wrap;html=1;" vertex="1" parent="1">
          <mxGeometry x="440" y="170" width="90" height="50" as="geometry" />
        </mxCell>
        <mxCell id="G1pBKtVzUoB-wNksZCLJ-6" value="" style="endArrow=classic;html=1;rounded=0;exitX=0.933;exitY=0.7;exitDx=0;exitDy=0;exitPerimeter=0;entryX=0;entryY=0;entryDx=0;entryDy=0;" edge="1" parent="1" source="G1pBKtVzUoB-wNksZCLJ-2" target="G1pBKtVzUoB-wNksZCLJ-5">
          <mxGeometry width="50" height="50" relative="1" as="geometry">
            <mxPoint x="340" y="290" as="sourcePoint" />
            <mxPoint x="390" y="240" as="targetPoint" />
          </mxGeometry>
        </mxCell>
        <mxCell id="G1pBKtVzUoB-wNksZCLJ-7" value="Include" style="edgeLabel;html=1;align=center;verticalAlign=middle;resizable=0;points=[];" vertex="1" connectable="0" parent="G1pBKtVzUoB-wNksZCLJ-6">
          <mxGeometry x="-0.2074" y="-1" relative="1" as="geometry">
            <mxPoint as="offset" />
          </mxGeometry>
        </mxCell>
        <mxCell id="G1pBKtVzUoB-wNksZCLJ-8" value="" style="endArrow=classic;html=1;rounded=0;exitX=0.589;exitY=0.94;exitDx=0;exitDy=0;exitPerimeter=0;entryX=0;entryY=0;entryDx=0;entryDy=0;" edge="1" parent="1" source="G1pBKtVzUoB-wNksZCLJ-2" target="G1pBKtVzUoB-wNksZCLJ-3">
          <mxGeometry width="50" height="50" relative="1" as="geometry">
            <mxPoint x="340" y="290" as="sourcePoint" />
            <mxPoint x="390" y="240" as="targetPoint" />
          </mxGeometry>
        </mxCell>
        <mxCell id="G1pBKtVzUoB-wNksZCLJ-9" value="extend&lt;div&gt;&lt;br&gt;&lt;/div&gt;" style="edgeLabel;html=1;align=center;verticalAlign=middle;resizable=0;points=[];" vertex="1" connectable="0" parent="G1pBKtVzUoB-wNksZCLJ-8">
          <mxGeometry x="0.0557" y="2" relative="1" as="geometry">
            <mxPoint as="offset" />
          </mxGeometry>
        </mxCell>
        <mxCell id="G1pBKtVzUoB-wNksZCLJ-11" value="" style="ellipse;whiteSpace=wrap;html=1;" vertex="1" parent="1">
          <mxGeometry x="279" y="253" width="90" height="50" as="geometry" />
        </mxCell>
        <mxCell id="G1pBKtVzUoB-wNksZCLJ-12" value="" style="endArrow=classic;html=1;rounded=0;exitX=0.078;exitY=0.7;exitDx=0;exitDy=0;exitPerimeter=0;entryX=0;entryY=0;entryDx=0;entryDy=0;" edge="1" parent="1" target="G1pBKtVzUoB-wNksZCLJ-11" source="G1pBKtVzUoB-wNksZCLJ-2">
          <mxGeometry width="50" height="50" relative="1" as="geometry">
            <mxPoint x="218" y="150" as="sourcePoint" />
            <mxPoint x="305" y="273" as="targetPoint" />
          </mxGeometry>
        </mxCell>
        <mxCell id="G1pBKtVzUoB-wNksZCLJ-13" value="extend&lt;div&gt;&lt;br&gt;&lt;/div&gt;" style="edgeLabel;html=1;align=center;verticalAlign=middle;resizable=0;points=[];" vertex="1" connectable="0" parent="G1pBKtVzUoB-wNksZCLJ-12">
          <mxGeometry x="0.0557" y="2" relative="1" as="geometry">
            <mxPoint as="offset" />
          </mxGeometry>
        </mxCell>
      </root>
    </mxGraphModel>
  </diagram>
</mxfile>
